{
	"asset":{
		"generator":"Khronos glTF Blender I/O v4.0.44",
		"version":"2.0"
	},
	"extensionsUsed":[
		"KHR_materials_specular",
		"KHR_materials_ior"
	],
	"scene":0,
	"scenes":[
		{
			"name":"Scene",
			"nodes":[
				0
			]
		}
	],
	"nodes":[
		{
			"mesh":0,
			"name":"Cube.007",
			"rotation":[
				0.005524950567632914,
				0.6330989003181458,
				-0.7740218043327332,
				0.006754777859896421
			],
			"translation":[
				0,
				0.9217638969421387,
				0
			]
		}
	],
	"materials":[
		{
			"doubleSided":true,
			"name":"Material.001",
			"pbrMetallicRoughness":{
				"baseColorTexture":{
					"index":0
				},
				"metallicFactor":0,
				"roughnessFactor":0.5
			}
		},
		{
			"doubleSided":true,
			"name":"DAN_BROWN_COLOR_2",
			"pbrMetallicRoughness":{
				"baseColorFactor":[
					0.22326506674289703,
					0.3515171408653259,
					0.6866356730461121,
					1
				],
				"metallicFactor":0,
				"roughnessFactor":0.8834586143493652
			}
		},
		{
			"doubleSided":true,
			"extensions":{
				"KHR_materials_specular":{
					"specularColorFactor":[
						1.060150384902954,
						1.060150384902954,
						1.060150384902954
					]
				},
				"KHR_materials_ior":{
					"ior":2.549999952316284
				}
			},
			"name":"PAGE_MATERIAL",
			"pbrMetallicRoughness":{
				"baseColorFactor":[
					1,
					0.6999760866165161,
					0.22270256280899048,
					1
				],
				"metallicFactor":0.007518797181546688,
				"roughnessFactor":0.530075192451477
			}
		},
		{
			"doubleSided":true,
			"name":"Material.003",
			"pbrMetallicRoughness":{
				"baseColorTexture":{
					"index":1
				},
				"metallicFactor":0,
				"roughnessFactor":0.5
			}
		},
		{
			"doubleSided":true,
			"name":"Material.007",
			"pbrMetallicRoughness":{
				"baseColorFactor":[
					0.12479294091463089,
					0.01938149519264698,
					0.01938096061348915,
					1
				],
				"metallicFactor":0,
				"roughnessFactor":0.5
			}
		},
		{
			"doubleSided":true,
			"name":"Material.006",
			"pbrMetallicRoughness":{
				"baseColorTexture":{
					"index":2
				},
				"metallicFactor":0,
				"roughnessFactor":0.5
			}
		},
		{
			"doubleSided":true,
			"name":"Material.008",
			"pbrMetallicRoughness":{
				"baseColorFactor":[
					0.215896338224411,
					0.5028644800186157,
					0.5088446140289307,
					1
				],
				"metallicFactor":0,
				"roughnessFactor":0.5
			}
		},
		{
			"doubleSided":true,
			"name":"Material.004",
			"pbrMetallicRoughness":{
				"baseColorTexture":{
					"index":3
				},
				"metallicFactor":0,
				"roughnessFactor":0.5
			}
		},
		{
			"doubleSided":true,
			"name":"Material.009",
			"pbrMetallicRoughness":{
				"baseColorFactor":[
					0.8880723118782043,
					0.8631194829940796,
					0.7834812998771667,
					1
				],
				"metallicFactor":0,
				"roughnessFactor":0.5
			}
		},
		{
			"doubleSided":true,
			"name":"Material.005",
			"pbrMetallicRoughness":{
				"baseColorTexture":{
					"index":4
				},
				"metallicFactor":0.009999999776482582,
				"roughnessFactor":0.5
			}
		},
		{
			"doubleSided":true,
			"name":"Material.010",
			"pbrMetallicRoughness":{
				"baseColorFactor":[
					0.7682814002037048,
					0.13013076782226562,
					0.012285647913813591,
					1
				],
				"metallicFactor":0,
				"roughnessFactor":0.5
			}
		},
		{
			"doubleSided":true,
			"name":"Material",
			"pbrMetallicRoughness":{
				"baseColorFactor":[
					0.800000011920929,
					0.800000011920929,
					0.800000011920929,
					1
				],
				"metallicFactor":0,
				"roughnessFactor":0.586614191532135
			}
		}
	],
	"meshes":[
		{
			"name":"Cube.002",
			"primitives":[
				{
					"attributes":{
						"POSITION":0,
						"NORMAL":1,
						"TEXCOORD_0":2
					},
					"indices":3,
					"material":0
				},
				{
					"attributes":{
						"POSITION":4,
						"NORMAL":5,
						"TEXCOORD_0":6
					},
					"indices":7,
					"material":1
				},
				{
					"attributes":{
						"POSITION":8,
						"NORMAL":9,
						"TEXCOORD_0":10
					},
					"indices":11,
					"material":2
				},
				{
					"attributes":{
						"POSITION":12,
						"NORMAL":13,
						"TEXCOORD_0":14
					},
					"indices":15,
					"material":3
				},
				{
					"attributes":{
						"POSITION":16,
						"NORMAL":17,
						"TEXCOORD_0":18
					},
					"indices":19,
					"material":4
				},
				{
					"attributes":{
						"POSITION":20,
						"NORMAL":21,
						"TEXCOORD_0":22
					},
					"indices":23,
					"material":5
				},
				{
					"attributes":{
						"POSITION":24,
						"NORMAL":25,
						"TEXCOORD_0":26
					},
					"indices":27,
					"material":6
				},
				{
					"attributes":{
						"POSITION":28,
						"NORMAL":29,
						"TEXCOORD_0":30
					},
					"indices":31,
					"material":7
				},
				{
					"attributes":{
						"POSITION":32,
						"NORMAL":33,
						"TEXCOORD_0":34
					},
					"indices":35,
					"material":8
				},
				{
					"attributes":{
						"POSITION":36,
						"NORMAL":37,
						"TEXCOORD_0":38
					},
					"indices":39,
					"material":9
				},
				{
					"attributes":{
						"POSITION":40,
						"NORMAL":41,
						"TEXCOORD_0":42
					},
					"indices":43,
					"material":10
				},
				{
					"attributes":{
						"POSITION":44,
						"NORMAL":45,
						"TEXCOORD_0":46
					},
					"indices":47
				},
				{
					"attributes":{
						"POSITION":48,
						"NORMAL":49,
						"TEXCOORD_0":50
					},
					"indices":51,
					"material":11
				}
			]
		}
	],
	"textures":[
		{
			"sampler":0,
			"source":0
		},
		{
			"sampler":1,
			"source":1
		},
		{
			"sampler":1,
			"source":2
		},
		{
			"sampler":1,
			"source":3
		},
		{
			"sampler":1,
			"source":4
		}
	],
	"images":[
		{
			"mimeType":"image/png",
			"name":"texture_dan_brown_angels_demons",
			"uri":"texture_dan_brown_angels_demons.png"
		},
		{
			"mimeType":"image/png",
			"name":"texture_hp_goblet_of_fire.png",
			"uri":"texture_hp_goblet_of_fire_png.png"
		},
		{
			"mimeType":"image/png",
			"name":"texture_ikigai",
			"uri":"texture_ikigai.png"
		},
		{
			"mimeType":"image/png",
			"name":"texture_one_minute_manager",
			"uri":"texture_one_minute_manager.png"
		},
		{
			"mimeType":"image/png",
			"name":"texture_1984",
			"uri":"texture_1984.png"
		}
	],
	"accessors":[
		{
			"bufferView":0,
			"componentType":5126,
			"count":194,
			"max":[
				0.6163584589958191,
				0.10475127398967743,
				0.7482038736343384
			],
			"min":[
				-0.572679340839386,
				-0.11075402051210403,
				-0.755020260810852
			],
			"type":"VEC3"
		},
		{
			"bufferView":1,
			"componentType":5126,
			"count":194,
			"type":"VEC3"
		},
		{
			"bufferView":2,
			"componentType":5126,
			"count":194,
			"type":"VEC2"
		},
		{
			"bufferView":3,
			"componentType":5123,
			"count":426,
			"type":"SCALAR"
		},
		{
			"bufferView":4,
			"componentType":5126,
			"count":165,
			"max":[
				0.6163584589958191,
				0.10475126653909683,
				0.7430585026741028
			],
			"min":[
				-0.572679340839386,
				-0.10647930204868317,
				-0.755020260810852
			],
			"type":"VEC3"
		},
		{
			"bufferView":5,
			"componentType":5126,
			"count":165,
			"type":"VEC3"
		},
		{
			"bufferView":6,
			"componentType":5126,
			"count":165,
			"type":"VEC2"
		},
		{
			"bufferView":7,
			"componentType":5123,
			"count":375,
			"type":"SCALAR"
		},
		{
			"bufferView":8,
			"componentType":5126,
			"count":181,
			"max":[
				0.5778021812438965,
				0.9685862064361572,
				0.6827751398086548
			],
			"min":[
				-0.5453790426254272,
				-0.06646750122308731,
				-0.8736457824707031
			],
			"type":"VEC3"
		},
		{
			"bufferView":9,
			"componentType":5126,
			"count":181,
			"type":"VEC3"
		},
		{
			"bufferView":10,
			"componentType":5126,
			"count":181,
			"type":"VEC2"
		},
		{
			"bufferView":11,
			"componentType":5123,
			"count":462,
			"type":"SCALAR"
		},
		{
			"bufferView":12,
			"componentType":5126,
			"count":170,
			"max":[
				0.5937405824661255,
				0.6869920492172241,
				0.6956287026405334
			],
			"min":[
				-0.5841848850250244,
				0.12294343113899231,
				-0.7968798279762268
			],
			"type":"VEC3"
		},
		{
			"bufferView":13,
			"componentType":5126,
			"count":170,
			"type":"VEC3"
		},
		{
			"bufferView":14,
			"componentType":5126,
			"count":170,
			"type":"VEC2"
		},
		{
			"bufferView":15,
			"componentType":5123,
			"count":405,
			"type":"SCALAR"
		},
		{
			"bufferView":16,
			"componentType":5126,
			"count":117,
			"max":[
				0.5993388891220093,
				0.6869920492172241,
				0.6956287026405334
			],
			"min":[
				-0.5841848850250244,
				0.10359647870063782,
				-0.7968798279762268
			],
			"type":"VEC3"
		},
		{
			"bufferView":17,
			"componentType":5126,
			"count":117,
			"type":"VEC3"
		},
		{
			"bufferView":18,
			"componentType":5126,
			"count":117,
			"type":"VEC2"
		},
		{
			"bufferView":19,
			"componentType":5123,
			"count":264,
			"type":"SCALAR"
		},
		{
			"bufferView":20,
			"componentType":5126,
			"count":178,
			"max":[
				0.6029971837997437,
				0.8965746760368347,
				0.6431565880775452
			],
			"min":[
				-0.58052659034729,
				0.3131791353225708,
				-0.8493519425392151
			],
			"type":"VEC3"
		},
		{
			"bufferView":21,
			"componentType":5126,
			"count":178,
			"type":"VEC3"
		},
		{
			"bufferView":22,
			"componentType":5126,
			"count":178,
			"type":"VEC2"
		},
		{
			"bufferView":23,
			"componentType":5123,
			"count":459,
			"type":"SCALAR"
		},
		{
			"bufferView":24,
			"componentType":5126,
			"count":78,
			"max":[
				0.5973988771438599,
				0.8596569895744324,
				0.6338599920272827
			],
			"min":[
				-0.58052659034729,
				0.3131791353225708,
				-0.8493519425392151
			],
			"type":"VEC3"
		},
		{
			"bufferView":25,
			"componentType":5126,
			"count":78,
			"type":"VEC3"
		},
		{
			"bufferView":26,
			"componentType":5126,
			"count":78,
			"type":"VEC2"
		},
		{
			"bufferView":27,
			"componentType":5123,
			"count":201,
			"type":"SCALAR"
		},
		{
			"bufferView":28,
			"componentType":5126,
			"count":124,
			"max":[
				-0.5015909671783447,
				1.1143608093261719,
				0.5835990905761719
			],
			"min":[
				-0.5767251253128052,
				0.5503121614456177,
				-0.9089094400405884
			],
			"type":"VEC3"
		},
		{
			"bufferView":29,
			"componentType":5126,
			"count":124,
			"type":"VEC3"
		},
		{
			"bufferView":30,
			"componentType":5126,
			"count":124,
			"type":"VEC2"
		},
		{
			"bufferView":31,
			"componentType":5123,
			"count":321,
			"type":"SCALAR"
		},
		{
			"bufferView":32,
			"componentType":5126,
			"count":142,
			"max":[
				0.6067986488342285,
				1.1143608093261719,
				0.5835990905761719
			],
			"min":[
				-0.5767251253128052,
				0.5309652090072632,
				-0.9089094400405884
			],
			"type":"VEC3"
		},
		{
			"bufferView":33,
			"componentType":5126,
			"count":142,
			"type":"VEC3"
		},
		{
			"bufferView":34,
			"componentType":5126,
			"count":142,
			"type":"VEC2"
		},
		{
			"bufferView":35,
			"componentType":5123,
			"count":324,
			"type":"SCALAR"
		},
		{
			"bufferView":36,
			"componentType":5126,
			"count":248,
			"max":[
				0.6046406030654907,
				1.3515520095825195,
				0.5510873794555664
			],
			"min":[
				-0.5725849866867065,
				0.7681565284729004,
				-0.9414211511611938
			],
			"type":"VEC3"
		},
		{
			"bufferView":37,
			"componentType":5126,
			"count":248,
			"type":"VEC3"
		},
		{
			"bufferView":38,
			"componentType":5126,
			"count":248,
			"type":"VEC2"
		},
		{
			"bufferView":39,
			"componentType":5123,
			"count":618,
			"type":"SCALAR"
		},
		{
			"bufferView":40,
			"componentType":5126,
			"count":37,
			"max":[
				0.6109387874603271,
				1.3515520095825195,
				0.5510873794555664
			],
			"min":[
				-0.5385863184928894,
				0.7681565284729004,
				-0.9414211511611938
			],
			"type":"VEC3"
		},
		{
			"bufferView":41,
			"componentType":5126,
			"count":37,
			"type":"VEC3"
		},
		{
			"bufferView":42,
			"componentType":5126,
			"count":37,
			"type":"VEC2"
		},
		{
			"bufferView":43,
			"componentType":5123,
			"count":63,
			"type":"SCALAR"
		},
		{
			"bufferView":44,
			"componentType":5126,
			"count":62,
			"max":[
				0.680105984210968,
				1.3753527402877808,
				1.1112055778503418
			],
			"min":[
				-0.6697301268577576,
				-0.7809221148490906,
				0.5061787366867065
			],
			"type":"VEC3"
		},
		{
			"bufferView":45,
			"componentType":5126,
			"count":62,
			"type":"VEC3"
		},
		{
			"bufferView":46,
			"componentType":5126,
			"count":62,
			"type":"VEC2"
		},
		{
			"bufferView":47,
			"componentType":5123,
			"count":180,
			"type":"SCALAR"
		},
		{
			"bufferView":48,
			"componentType":5126,
			"count":50,
			"max":[
				0.6954945921897888,
				1.5593987703323364,
				0.6842894554138184
			],
			"min":[
				-0.6494230031967163,
				1.0800490379333496,
				-0.7131417393684387
			],
			"type":"VEC3"
		},
		{
			"bufferView":49,
			"componentType":5126,
			"count":50,
			"type":"VEC3"
		},
		{
			"bufferView":50,
			"componentType":5126,
			"count":50,
			"type":"VEC2"
		},
		{
			"bufferView":51,
			"componentType":5123,
			"count":90,
			"type":"SCALAR"
		}
	],
	"bufferViews":[
		{
			"buffer":0,
			"byteLength":2328,
			"byteOffset":0,
			"target":34962
		},
		{
			"buffer":0,
			"byteLength":2328,
			"byteOffset":2328,
			"target":34962
		},
		{
			"buffer":0,
			"byteLength":1552,
			"byteOffset":4656,
			"target":34962
		},
		{
			"buffer":0,
			"byteLength":852,
			"byteOffset":6208,
			"target":34963
		},
		{
			"buffer":0,
			"byteLength":1980,
			"byteOffset":7060,
			"target":34962
		},
		{
			"buffer":0,
			"byteLength":1980,
			"byteOffset":9040,
			"target":34962
		},
		{
			"buffer":0,
			"byteLength":1320,
			"byteOffset":11020,
			"target":34962
		},
		{
			"buffer":0,
			"byteLength":750,
			"byteOffset":12340,
			"target":34963
		},
		{
			"buffer":0,
			"byteLength":2172,
			"byteOffset":13092,
			"target":34962
		},
		{
			"buffer":0,
			"byteLength":2172,
			"byteOffset":15264,
			"target":34962
		},
		{
			"buffer":0,
			"byteLength":1448,
			"byteOffset":17436,
			"target":34962
		},
		{
			"buffer":0,
			"byteLength":924,
			"byteOffset":18884,
			"target":34963
		},
		{
			"buffer":0,
			"byteLength":2040,
			"byteOffset":19808,
			"target":34962
		},
		{
			"buffer":0,
			"byteLength":2040,
			"byteOffset":21848,
			"target":34962
		},
		{
			"buffer":0,
			"byteLength":1360,
			"byteOffset":23888,
			"target":34962
		},
		{
			"buffer":0,
			"byteLength":810,
			"byteOffset":25248,
			"target":34963
		},
		{
			"buffer":0,
			"byteLength":1404,
			"byteOffset":26060,
			"target":34962
		},
		{
			"buffer":0,
			"byteLength":1404,
			"byteOffset":27464,
			"target":34962
		},
		{
			"buffer":0,
			"byteLength":936,
			"byteOffset":28868,
			"target":34962
		},
		{
			"buffer":0,
			"byteLength":528,
			"byteOffset":29804,
			"target":34963
		},
		{
			"buffer":0,
			"byteLength":2136,
			"byteOffset":30332,
			"target":34962
		},
		{
			"buffer":0,
			"byteLength":2136,
			"byteOffset":32468,
			"target":34962
		},
		{
			"buffer":0,
			"byteLength":1424,
			"byteOffset":34604,
			"target":34962
		},
		{
			"buffer":0,
			"byteLength":918,
			"byteOffset":36028,
			"target":34963
		},
		{
			"buffer":0,
			"byteLength":936,
			"byteOffset":36948,
			"target":34962
		},
		{
			"buffer":0,
			"byteLength":936,
			"byteOffset":37884,
			"target":34962
		},
		{
			"buffer":0,
			"byteLength":624,
			"byteOffset":38820,
			"target":34962
		},
		{
			"buffer":0,
			"byteLength":402,
			"byteOffset":39444,
			"target":34963
		},
		{
			"buffer":0,
			"byteLength":1488,
			"byteOffset":39848,
			"target":34962
		},
		{
			"buffer":0,
			"byteLength":1488,
			"byteOffset":41336,
			"target":34962
		},
		{
			"buffer":0,
			"byteLength":992,
			"byteOffset":42824,
			"target":34962
		},
		{
			"buffer":0,
			"byteLength":642,
			"byteOffset":43816,
			"target":34963
		},
		{
			"buffer":0,
			"byteLength":1704,
			"byteOffset":44460,
			"target":34962
		},
		{
			"buffer":0,
			"byteLength":1704,
			"byteOffset":46164,
			"target":34962
		},
		{
			"buffer":0,
			"byteLength":1136,
			"byteOffset":47868,
			"target":34962
		},
		{
			"buffer":0,
			"byteLength":648,
			"byteOffset":49004,
			"target":34963
		},
		{
			"buffer":0,
			"byteLength":2976,
			"byteOffset":49652,
			"target":34962
		},
		{
			"buffer":0,
			"byteLength":2976,
			"byteOffset":52628,
			"target":34962
		},
		{
			"buffer":0,
			"byteLength":1984,
			"byteOffset":55604,
			"target":34962
		},
		{
			"buffer":0,
			"byteLength":1236,
			"byteOffset":57588,
			"target":34963
		},
		{
			"buffer":0,
			"byteLength":444,
			"byteOffset":58824,
			"target":34962
		},
		{
			"buffer":0,
			"byteLength":444,
			"byteOffset":59268,
			"target":34962
		},
		{
			"buffer":0,
			"byteLength":296,
			"byteOffset":59712,
			"target":34962
		},
		{
			"buffer":0,
			"byteLength":126,
			"byteOffset":60008,
			"target":34963
		},
		{
			"buffer":0,
			"byteLength":744,
			"byteOffset":60136,
			"target":34962
		},
		{
			"buffer":0,
			"byteLength":744,
			"byteOffset":60880,
			"target":34962
		},
		{
			"buffer":0,
			"byteLength":496,
			"byteOffset":61624,
			"target":34962
		},
		{
			"buffer":0,
			"byteLength":360,
			"byteOffset":62120,
			"target":34963
		},
		{
			"buffer":0,
			"byteLength":600,
			"byteOffset":62480,
			"target":34962
		},
		{
			"buffer":0,
			"byteLength":600,
			"byteOffset":63080,
			"target":34962
		},
		{
			"buffer":0,
			"byteLength":400,
			"byteOffset":63680,
			"target":34962
		},
		{
			"buffer":0,
			"byteLength":180,
			"byteOffset":64080,
			"target":34963
		}
	],
	"samplers":[
		{
			"magFilter":9729,
			"minFilter":9987,
			"wrapS":33071,
			"wrapT":33071
		},
		{
			"magFilter":9729,
			"minFilter":9987
		}
	],
	"buffers":[
		{
			"byteLength":64260,
			"uri":"bookshelf.bin"
		}
	]
}
